# AST/ASF file generated using VICON BodyLanguage
# -----------------------------------------------
:version 1.10
:name VICON
:units
  mass 1.0
  length 0.45
  angle deg
:documentation
   .ast/.asf automatically generated from VICON data using
   VICON BodyBuilder and BodyLanguage model FoxedUp or BRILLIANT.MOD
:root
   order TX TY TZ RX RY RZ
   axis XYZ
   position 0 0 0  
   orientation 0 0 0 
:bonedata
  begin
     id 1 
     name lhipjoint
     direction 0.62366 -0.717238 0.310833 
     length 2.53602 
     axis 0 0 0  XYZ
  end
  begin
     id 2 
     name lfemur
     direction 0.34202 -0.939693 0  
     length 7.40817  
     axis 0 0 20  XYZ
    dof rx ry rz
    limits (-160.0 20.0)
           (-70.0 70.0)
           (-60.0 70.0)
  end
  begin
     id 3 
     name ltibia
     direction 0.34202 -0.939693 0   
     length 7.7045   
     axis 0 0 20   XYZ
    dof rx
    limits (-10.0 170.0)
  end
  begin
     id 4 
     name lfoot
     direction 0.0673888 -0.185149 0.980397   
     length 2.09456   
     axis -90 7.62852e-016 20   XYZ
    dof rx rz
    limits (-45.0 90.0)
           (-70.0 20.0)
  end
  begin
     id 5 
     name ltoes
     direction 1.53575e-011 -4.21994e-011 1   
     length 1.05543   
     axis -90 7.62852e-016 20   XYZ
    dof rx
    limits (-90.0 20.0)
  end
  begin
     id 6 
     name rhipjoint
     direction -0.489018 -0.800347 0.346851   
     length 2.27268  
     axis 0 0 0  XYZ 
  end
  begin
     id 7 
     name rfemur
     direction -0.34202 -0.939693 0   
     length 7.55487   
     axis 0 0 -20   XYZ
    dof rx ry rz
    limits (-160.0 20.0)
           (-70.0 70.0)
           (-70.0 60.0)
  end
  begin
     id 8 
     name rtibia
     direction -0.34202 -0.939693 0   
     length 7.78969   
     axis 0 0 -20   XYZ
    dof rx
    limits (-10.0 170.0)
 end
 begin
     id 9 
     name rfoot
     direction -0.0859318 -0.236096 0.967923   
     length 2.19143  
     axis -90 -7.62852e-016 -20   XYZ
    dof rx rz
    limits (-45.0 90.0)
           (-20.0 70.0)
  end
  begin
     id 10 
     name rtoes
     direction -1.53538e-011 -4.21989e-011 1   
     length 1.09845   
     axis -90 -7.62852e-016 -20   XYZ
    dof rx
    limits (-90.0 20.0)
  end
  begin
     id 11 
     name lowerback
     direction -0.00762546 0.998978 -0.0445553   
     length 1.98161   
     axis 0 0 0   XYZ
    dof rx ry rz
    limits (-20.0 45.0)
           (-30.0 30.0)
           (-30.0 30.0)
  end
  begin
     id 12 
     name upperback
     direction 0.0422361 0.998867 -0.0219156   
     length 1.97558   
     axis 0 0 0   XYZ
    dof rx ry rz
    limits (-20.0 45.0)
           (-30.0 30.0)
           (-30.0 30.0)
  end
  begin
     id 13 
     name thorax
     direction 0.0442465 0.999021 7.47603e-005   
     length 1.97799   
     axis 0 0 0   XYZ
    dof rx ry rz
    limits (-20.0 45.0)
           (-30.0 30.0)
           (-30.0 30.0)
  end
  begin
     id 14 
     name lowerneck
     direction 0.00312169 0.984641 0.174564   
     length 1.78995   
     axis 0 0 0   XYZ
    dof rx ry rz
    limits (-20.0 45.0)
           (-30.0 30.0)
           (-30.0 30.0)
  end
  begin
     id 15 
     name upperneck
     direction -0.0383028 0.985255 -0.166749   
     length 1.83053   
     axis 0 0 0   XYZ
    dof rx ry rz
    limits (-20.0 45.0)
           (-30.0 30.0)
           (-30.0 30.0)
  end
  begin
     id 16
     name head
     direction -0.0129546 0.997059 -0.0755386  
     length 1.84088  
     axis 0 0 0   XYZ
    dof rx ry rz
    limits (-20.0 45.0)
           (-30.0 30.0)
           (-30.0 30.0)
  end
  begin
     id 17 
     name lclavicle
     direction 0.912857 0.370519 -0.171488  
     length 3.51279  
     axis 0 0 0   XYZ
    dof ry rz
    limits (-20.0 10.0)
           (0.0 20.0)
  end
  begin
     id 18 
     name lhumerus
     direction 1 -4.48962e-011 3.64361e-027   
     length 4.95663   
     axis 180 -30 -90   XYZ
    dof rx ry rz
    limits (-60.0 90.0)
           (-90.0 90.0)
           (-90.0 90.0)
  end
  begin
     id 19
     name lradius
     direction 1 -4.48974e-011 5.97202e-027   
     length 3.38177   
     axis 180 -30 -90   XYZ
    dof rx
    limits (-10.0 170.0)
  end
  begin
     id 20
     name lwrist
     direction 1 -4.4896e-011 9.83288e-027   
     length 1.69088   
     axis -9.31221e-015 90 90   XYZ
    dof ry
    limits (-180.0 0.0)
 end
  begin
     id 21 
     name lhand
     direction 1 -4.4902e-011 1.96551e-026   
     length 0.662909   
     axis -1.25475e-014 90 90   XYZ
    dof rx rz
    limits (-90.0 90.0)
           (-45.0 45.0)
  end
  begin
     id 22 
     name lfingers
     direction 1 -4.48971e-011 3.93277e-026   
     length 0.534454   
     axis -2.50945e-014 90 90   XYZ
    dof rx
    limits (0.0 90.0)
  end
  begin
     id 23
     name lthumb
     direction 0.707107 -6.34933e-011 0.707107   
     length 0.767373   
     axis -90 45 -4.80359e-014   XYZ
    dof rx rz
    limits (-45.0 45.0)
           (-45.0 45.0)
  end
  begin
     id 24 
     name rclavicle
     direction -0.900919 0.395364 -0.178976   
     length 3.40627  
     axis 0 0 0   XYZ 
    dof ry rz
    limits (-10.0 20.0)
           (-20.0 0.0)
  end
  begin
     id 25 
     name rhumerus
     direction -1 -4.48969e-011 1.03875e-027  
     length 5.08365   
     axis 180 30 90   XYZ
    dof rx ry rz
    limits (-90.0 60.0)
           (-90.0 90.0)
           (-90.0 90.0)
  end
  begin
     id 26 
     name rradius
     direction -1 -4.48951e-011 5.02733e-027   
     length 3.35984   
     axis 180 30 90   XYZ
    dof rx
    limits (-10.0 170.0)
  end
  begin
     id 27 
     name rwrist
     direction -1 -4.49011e-011 9.82828e-027   
     length 1.67992   
     axis -9.31221e-015 -90 -90   XYZ
    dof ry
    limits (-180.0 0.0)
  end
  begin
     id 28
     name rhand
     direction -1 -4.48894e-011 1.96774e-026   
     length 0.820764   
     axis -1.25475e-014 -90 -90   XYZ
    dof rx rz
    limits (-90.0 90.0)
           (-45.0 45.0)
  end
  begin
     id 29
     name rfingers
     direction -1 -4.49095e-011 3.92833e-026   
     length 0.661721   
     axis -2.50945e-014 -90 -90   XYZ
    dof rx
    limits (0.0 90.0)
  end
  begin
     id 30
     name rthumb
     direction -0.707107 -6.34881e-011 0.707107   
     length 0.950103   
     axis -90 -45 4.80359e-014   XYZ
    dof rx rz
    limits (-45.0 45.0)
           (-45.0 45.0)
  end
:hierarchy
  begin
    root lhipjoint rhipjoint lowerback
    lhipjoint lfemur
    lfemur ltibia
    ltibia lfoot
    lfoot ltoes
    rhipjoint rfemur
    rfemur rtibia
    rtibia rfoot
    rfoot rtoes
    lowerback upperback
    upperback thorax
    thorax lowerneck lclavicle rclavicle
    lowerneck upperneck
    upperneck head
    lclavicle lhumerus
    lhumerus lradius
    lradius lwrist
    lwrist lhand lthumb
    lhand lfingers
    rclavicle rhumerus
    rhumerus rradius
    rradius rwrist
    rwrist rhand rthumb
    rhand rfingers
  end

#!OML:ASF I:\golf\golf\golf 2\Subject 1\2002-09-07\Subject1.ASF
:FULLY-SPECIFIED
:DEGREES
127
root 0.747944 17.9763 -8.94993 7.49681 -0.814488 -4.91442
lowerback -1.66884 0.854767 -3.01458
upperback 1.92307 1.13748 3.76979
thorax 2.78662 0.463767 5.65153
lowerneck -14.466 1.05598 0.850115
upperneck 41.2572 4.06029 -6.14456
head 17.9668 0.942266 -2.24895
rclavicle 8.29926e-015 -1.90833e-014
rhumerus -23.912 3.65949 -85.7027
rradius 27.0773
rwrist -9.40124
rhand -32.0955 17.8334
rfingers 7.12502
rthumb -5.34091 -12.0793
lclavicle 8.29926e-015 -1.90833e-014
lhumerus -28.6894 -13.3378 96.4569
lradius 33.4583
lwrist 8.25637
lhand -2.95731 35.7214
lfingers 7.12502
lthumb 22.7549 64.3995
rfemur -32.9661 -9.05189 23.514
rtibia 47.9774
rfoot -7.96621 -9.26923
rtoes -1.59925
lfemur -12.3599 5.41243 -19.1471
ltibia 27.4285
lfoot -18.072 2.25755
ltoes -8.76386
128
root 0.748537 17.9785 -8.9216 7.41111 -0.538332 -5.01638
lowerback -1.54945 0.86305 -2.85303
upperback 1.90521 1.14353 3.72742
thorax 2.70328 0.473093 5.51151
lowerneck -14.2125 0.964022 0.98003
upperneck 41.2523 3.85748 -6.11544
head 17.882 0.890509 -2.29534
rclavicle 1.2921e-015 -2.00773e-014
rhumerus -24.1002 3.45063 -85.7845
rradius 27.203
rwrist -9.53724
rhand -32.1655 18.0178
rfingers 7.12502
rthumb -5.40856 -11.8932
lclavicle 1.2921e-015 -2.00773e-014
lhumerus -29.0458 -14.145 96.6576
lradius 33.7789
lwrist 8.46744
lhand -2.19755 36.1472
lfingers 7.12502
lthumb 23.4839 64.7339
rfemur -32.9623 -9.52515 23.7305
rtibia 47.2591
rfoot -8.06133 -9.39783
rtoes -2.28214
lfemur -12.0506 5.3305 -18.9742
ltibia 27.1657
lfoot -18.0857 2.07914
ltoes -8.71274
129
root 0.751547 17.9804 -8.89659 7.44099 -0.489728 -5.02297
lowerback -1.40215 0.921969 -2.81985
upperback 1.84072 1.22173 3.68287
thorax 2.54568 0.518531 5.4435
lowerneck -14.0969 0.887917 1.00346
upperneck 41.3113 3.70853 -6.05213
head 17.873 0.845062 -2.29943
rclavicle 3.97569e-016 5.96354e-015
rhumerus -24.339 3.47324 -85.8572
rradius 27.4606
rwrist -9.83312
rhand -32.2519 18.1884
rfingers 7.12502
rthumb -5.49197 -11.7204
lclavicle 3.97569e-016 5.96354e-015
lhumerus -29.3977 -15.1392 97.0352
lradius 33.9734
lwrist 9.69934
lhand -2.37229 36.3045
lfingers 7.12502
lthumb 23.3163 64.9125
rfemur -33.1142 -9.79855 23.814
rtibia 46.4313
rfoot -7.98752 -9.45137
rtoes -3.1412
lfemur -11.877 5.28316 -18.9667
ltibia 26.9217
lfoot -18.0121 2.06049
ltoes -8.35789
130
root 0.759648 17.9864 -8.87546 7.57426 -0.589413 -4.97534
lowerback -1.31102 1.00368 -2.81186
upperback 1.81919 1.33117 3.63246
thorax 2.4606 0.576508 5.38655
lowerneck -14.2279 0.841052 0.986035
upperneck 41.3731 3.62763 -6.00226
head 17.9371 0.814515 -2.29117
rclavicle 2.35063e-014 2.54444e-014
rhumerus -24.385 3.60289 -85.8906
rradius 27.6696
rwrist -10.1672
rhand -32.2671 18.3806
rfingers 7.12502
rthumb -5.50665 -11.5279
lclavicle 2.35063e-014 2.54444e-014
lhumerus -29.564 -15.8138 97.257
lradius 34.2784
lwrist 9.90079
lhand -2.27771 36.0592
lfingers 7.12502
lthumb 23.407 64.6557
rfemur -33.4078 -9.93593 23.7935
rtibia 45.4872
rfoot -8.08851 -9.37905
rtoes -2.4397
lfemur -11.8211 5.26858 -19.0791
ltibia 26.6915
lfoot -17.9197 2.18597
ltoes -8.27894
131
root 0.766065 17.9936 -8.85199 7.66358 -0.662347 -5.00939
lowerback -1.36739 1.04 -2.79681
upperback 1.91828 1.3777 3.67195
thorax 2.58909 0.594718 5.42428
lowerneck -14.3662 0.824544 0.8727
upperneck 41.3442 3.62964 -5.97536
head 17.9546 0.799296 -2.25662
rclavicle -2.93207e-015 9.93923e-015
rhumerus -24.1926 3.70628 -85.8328
rradius 27.715
rwrist -10.2961
rhand -32.2308 18.591
rfingers 7.12502
rthumb -5.47156 -11.3183
lclavicle -2.93207e-015 9.93923e-015
lhumerus -29.5904 -16.1789 97.3808
lradius 34.7795
lwrist 9.2473
lhand -2.83903 35.0274
lfingers 7.12502
lthumb 22.8684 63.6915
rfemur -33.5751 -10.0737 23.877
rtibia 44.4332
rfoot -8.08183 -9.37926
rtoes -1.96129
lfemur -11.7027 5.28303 -19.0793
ltibia 26.4574
lfoot -17.9172 2.17368
ltoes -7.71317
132
root 0.759575 18.0015 -8.82051 7.61844 -0.325598 -5.01938
lowerback -1.21384 0.908705 -2.93613
upperback 1.94628 1.20112 3.77518
thorax 2.54748 0.50289 5.60412
lowerneck -14.4168 0.853863 0.707102
upperneck 41.359 3.7153 -5.93029
head 17.9785 0.812546 -2.18992
rclavicle 8.34896e-015 1.23246e-014
rhumerus -24.1651 3.75211 -85.7831
rradius 27.7588
rwrist -10.2358
rhand -32.1899 18.7073
rfingers 7.12502
rthumb -5.43204 -11.2031
lclavicle 8.34896e-015 1.23246e-014
lhumerus -29.8786 -16.4885 97.6421
lradius 35.2577
lwrist 9.38072
lhand -1.38882 36.8831
lfingers 7.12502
lthumb 24.2595 65.3683
rfemur -33.4368 -10.3961 23.9976
rtibia 43.2836
rfoot -8.10359 -9.7382
rtoes -3.71838
lfemur -11.421 5.18435 -18.9594
ltibia 26.1948
lfoot -17.959 1.78665
ltoes -6.97049
133
root 0.755849 18.0084 -8.79326 7.63348 -0.0776212 -5.07479
lowerback -1.19947 0.844891 -3.01227
upperback 2.04427 1.11372 3.87959
thorax 2.64846 0.451896 5.75677
lowerneck -14.5473 0.842007 0.631664
upperneck 41.3314 3.73947 -5.96645
head 17.9995 0.804003 -2.18787
rclavicle 4.47266e-016 -1.49089e-014
rhumerus -23.999 3.78782 -85.7038
rradius 27.8005
rwrist -10.2256
rhand -32.2758 18.8747
rfingers 7.12502
rthumb -5.51501 -11.0335
lclavicle 4.47266e-016 -1.49089e-014
lhumerus -29.9127 -16.7806 97.8772
lradius 35.4255
lwrist 9.49182
lhand -2.42433 35.9708
lfingers 7.12502
lthumb 23.2664 64.5851
rfemur -33.3894 -10.5124 24.1179
rtibia 42.0646
rfoot -8.0831 -10.044
rtoes -5.20286
lfemur -11.236 5.05675 -18.8262
ltibia 25.9543
lfoot -17.9001 1.64639
ltoes -7.38243
134
root 0.75517 18.0146 -8.76454 7.68729 -0.0233266 -5.07764
lowerback -1.23356 0.879888 -3.0987
upperback 2.12008 1.16112 3.92726
thorax 2.73833 0.469435 5.86032
lowerneck -14.5713 0.800511 0.650467
upperneck 41.3076 3.6986 -6.03628
head 17.9925 0.78205 -2.23068
rclavicle 2.18663e-014 1.11319e-014
rhumerus -23.9446 3.87689 -85.6403
rradius 27.9053
rwrist -10.3435
rhand -32.4522 19.0494
rfingers 7.12502
rthumb -5.68538 -10.8544
lclavicle 2.18663e-014 1.11319e-014
lhumerus -29.8486 -17.07 98.0251
lradius 35.5687
lwrist 8.80942
lhand -2.69574 35.1691
lfingers 7.12502
lthumb 23.0059 63.8161
rfemur -33.3996 -10.5108 24.131
rtibia 40.8066
rfoot -8.08043 -10.145
rtoes -2.56629
lfemur -11.0891 5.06569 -18.8059
ltibia 25.7377
lfoot -17.8534 1.61916
ltoes -7.78564
135
root 0.755042 18.0195 -8.73545 7.79184 -0.0172319 -4.97601
lowerback -1.25634 0.890844 -3.25671
upperback 2.13959 1.18005 3.93152
thorax 2.76646 0.474317 5.95699
lowerneck -14.5606 0.817428 0.657606
upperneck 41.2721 3.74237 -6.0861
head 17.9737 0.795154 -2.24536
rclavicle -5.96354e-016 -3.26007e-014
rhumerus -24.0123 4.03737 -85.6091
rradius 28.1024
rwrist -10.5398
rhand -32.509 19.1407
rfingers 7.12502
rthumb -5.74016 -10.7615
lclavicle -5.96354e-016 -3.26007e-014
lhumerus -29.9262 -17.4249 98.2514
lradius 35.7834
lwrist 8.92829
lhand -1.9168 36.1335
lfingers 7.12502
lthumb 23.7532 64.6854
rfemur -33.451 -10.5992 24.0468
rtibia 39.5127
rfoot -7.90929 -10.1376
rtoes -1.23524
lfemur -11.0026 5.20591 -18.9214
ltibia 25.5485
lfoot -17.8629 1.46518
ltoes -7.46721
136
root 0.758556 18.0246 -8.71 7.90946 -0.0290979 -4.9161
lowerback -1.25704 0.908104 -3.31
upperback 2.16587 1.20449 3.92169
thorax 2.79032 0.484302 5.97849
lowerneck -14.6103 0.835302 0.667212
upperneck 41.2232 3.77296 -6.10463
head 17.9611 0.8065 -2.24795
rclavicle -1.51573e-014 -3.97569e-016
rhumerus -23.9837 4.21053 -85.6052
rradius 28.2595
rwrist -10.7939
rhand -32.4161 19.2869
rfingers 7.12502
rthumb -5.6505 -10.6178
lclavicle -1.51573e-014 -3.97569e-016
lhumerus -30.0517 -17.6625 98.4136
lradius 35.9689
lwrist 9.16257
lhand -2.07681 36.1307
lfingers 7.12502
lthumb 23.5997 64.7025
rfemur -33.533 -10.6849 23.9993
rtibia 38.1945
rfoot -7.4404 -10.0776
rtoes -2.43095
lfemur -10.9339 5.31871 -19.0125
ltibia 25.3425
lfoot -17.8611 1.34623
ltoes -7.24362
